<?xml version="1.0" encoding="UTF-8"?>
<svg id="Layer_2" data-name="Layer 2" xmlns="http://www.w3.org/2000/svg" viewBox="0 0 751.76 215.24">
  <defs>
    <style>
      .cls-1 {
        fill: #fff;
      }
    </style>
  </defs>
  <g id="Layer_1-2" data-name="Layer 1">
    <path class="cls-1" d="M96.76,15.31c1.56.02,3.14.12,4.7.06,4.24-.16,7.15-3.85,5.35-8.01-1.6-3.69-5.3-3.9-8.76-3.95-3.22-.04-6.44-.08-9.67-.12-9.31-.11-16.61-.23-25.92-.34-16.92-.21-11.48-.41-28.4-.62-1.14-.01-2.29-.04-3.43-.04-13.7.05-23.15,13.62-22.1,25.87,1.17,13.69,12.22,22.58,25.98,22.55l47.97-.1,35.88,50.57c-17.87,18.12-30.76,41.36-39.67,64.02l2.89-26.3c7.64-8.51,6.98-20.86-1.02-28.49-7.81-7.45-20.36-7.41-28.05.04-7.73,7.48-8.66,19.52-1.47,28.04l2.78,26.1c-9.72-23.71-22.1-45.19-39.48-63.53l20.44-28.99c1.79-2.54.31-6.62-1.83-8.05-1.63-1.09-6.18-1.27-7.55.67L.84,99.25c-2.3,3.23.62,6.5,2.83,8.53,24.62,22.59,47.54,68.55,55.36,101.52.77,3.26,3.18,5.16,6.09,5.14.31.03.62.03.91,0,2.7-.31,4.95-2.45,5.66-5.5,7.71-32.95,32.48-78.25,56.99-100.85,1.48-1.36,3.38-3.51,3.71-4.98.34-1.52-1-4.43-2.1-5.98l-41.66-58.43-56.88-.2c-6.65-.02-11.26-6.31-11.3-12.11-.03-5.58,4.47-12.25,11.2-12.26l65.13,1.19ZM70.27,133.77l-4.28,30.13-3.04-27.05c0-2.07-1.57-4.94-2.8-6.37-3.69-4.26-2.21-10.08,2.42-12.65,4.57-2.54,8.98-.17,11.95,4.18,3.2,4.68-3.03,7.93-4.25,11.77Z"/>
    <g>
      <path class="cls-1" d="M195.37.13c5.21,0,9.23.55,12.06,1.66,2.83,1.11,5.25,2.28,7.29,3.51,1.06.62,1.92,1.08,2.58,1.39.66.31,1.3.46,1.92.46.88,0,1.52-.48,1.92-1.46.4-.97.73-2.43.99-4.37h3.05c-.09,1.68-.2,3.69-.33,6.03-.13,2.34-.22,5.41-.27,9.21-.05,3.8-.07,8.79-.07,14.97h-3.05c-.35-4.59-1.41-9.05-3.18-13.38-1.77-4.33-4.26-7.88-7.49-10.67-3.23-2.78-7.18-4.17-11.86-4.17-4.24,0-7.73,1.19-10.47,3.58-2.74,2.39-4.11,5.7-4.11,9.94,0,3.53.88,6.56,2.65,9.08,1.77,2.52,4.35,4.97,7.75,7.35,3.4,2.39,7.53,5.26,12.39,8.61,4.24,2.74,8.04,5.48,11.39,8.21,3.36,2.74,6.05,5.83,8.08,9.28,2.03,3.45,3.05,7.55,3.05,12.32,0,5.83-1.52,10.65-4.57,14.44-3.05,3.8-7.05,6.65-11.99,8.55-4.95,1.9-10.38,2.85-16.3,2.85-5.48,0-9.85-.53-13.12-1.59-3.27-1.06-6.01-2.16-8.22-3.31-1.94-1.24-3.44-1.86-4.5-1.86-.88,0-1.52.49-1.92,1.46-.4.97-.73,2.43-.99,4.37h-3.05c.18-2.12.29-4.59.33-7.42.04-2.83.09-6.51.13-11.06.04-4.55.07-10.31.07-17.29h3.05c.35,5.83,1.35,11.29,2.98,16.36,1.63,5.08,4.15,9.17,7.55,12.26,3.4,3.09,7.93,4.64,13.58,4.64,3.09,0,5.85-.55,8.28-1.66,2.43-1.1,4.39-2.76,5.9-4.97,1.5-2.21,2.25-4.95,2.25-8.22,0-3.71-.86-6.93-2.58-9.67-1.72-2.74-4.06-5.3-7.02-7.69-2.96-2.39-6.38-4.81-10.27-7.29-4.15-2.74-8.04-5.48-11.66-8.22-3.62-2.74-6.51-5.87-8.68-9.41-2.17-3.53-3.25-7.73-3.25-12.59,0-5.57,1.39-10.14,4.17-13.71,2.78-3.58,6.45-6.23,11-7.95,4.55-1.72,9.38-2.58,14.51-2.58Z"/>
      <path class="cls-1" d="M320.19,1.85c-.35,4.5-.6,8.83-.73,12.99-.13,4.15-.2,7.33-.2,9.54,0,1.94.04,3.8.13,5.57.09,1.77.18,3.27.27,4.5h-3.05c-1.41-7.42-3.2-13.29-5.37-17.62-2.17-4.33-4.75-7.4-7.75-9.21-3-1.81-6.54-2.72-10.6-2.72h-3.05v75.66c0,3.53.37,6.18,1.13,7.95.75,1.77,2.14,2.94,4.17,3.51,2.03.58,4.99.91,8.88.99v2.65c-2.74-.09-6.38-.18-10.93-.27-4.55-.09-9.3-.13-14.24-.13s-9.45.05-13.78.13c-4.33.09-7.82.18-10.47.27v-2.65c3.98-.09,6.98-.42,9.01-.99,2.03-.57,3.4-1.74,4.11-3.51.71-1.77,1.06-4.42,1.06-7.95V4.9h-2.92c-4.06,0-7.6.91-10.6,2.72-3,1.81-5.57,4.86-7.69,9.14-2.12,4.29-3.97,10.18-5.57,17.69h-3.05c.18-1.24.29-2.74.33-4.5.04-1.77.07-3.62.07-5.57,0-2.21-.07-5.39-.2-9.54-.13-4.15-.38-8.48-.73-12.99,4.06.09,8.5.18,13.32.27,4.81.09,9.65.13,14.51.13h26.3c4.81,0,9.65-.04,14.51-.13,4.86-.09,9.23-.18,13.12-.27Z"/>
      <path class="cls-1" d="M364.71,1.59l32.2,82.95c1.24,3.18,2.63,5.37,4.17,6.56,1.54,1.19,2.94,1.83,4.17,1.92v2.65c-2.65-.18-5.76-.29-9.34-.33-3.58-.04-7.18-.07-10.8-.07-4.06,0-7.91.02-11.53.07-3.62.05-6.49.16-8.61.33v-2.65c4.51-.18,7.35-.95,8.55-2.32,1.19-1.37.9-4.31-.86-8.81l-22.53-61.62,2.39-3.44-20.14,52.47c-1.94,4.86-3.11,8.83-3.51,11.93-.4,3.09-.18,5.48.66,7.16.84,1.68,2.21,2.85,4.11,3.51,1.9.66,4.17,1.04,6.82,1.13v2.65c-2.92-.18-5.7-.29-8.35-.33-2.65-.04-5.35-.07-8.08-.07-1.94,0-3.78.02-5.5.07-1.72.05-3.25.16-4.57.33v-2.65c1.86-.35,3.75-1.54,5.7-3.58,1.94-2.03,3.84-5.48,5.7-10.34L355.57,1.59c1.41.09,2.94.13,4.57.13s3.16-.04,4.57-.13ZM373.99,57.51v2.65h-39.49l1.32-2.65h38.16Z"/>
      <path class="cls-1" d="M484.37,1.85v2.65c-1.94.71-4,2.25-6.16,4.64-2.17,2.39-4.17,6.09-6.03,11.13l-27.96,75.66c-.71-.09-1.46-.13-2.25-.13h-4.64c-.8,0-1.55.04-2.25.13l-33.79-82.95c-1.24-3.18-2.61-5.37-4.11-6.56-1.5-1.19-2.92-1.83-4.24-1.92V1.85c2.65.09,5.76.18,9.34.27,3.58.09,7.18.13,10.8.13,4.06,0,7.88-.04,11.46-.13,3.58-.09,6.47-.18,8.68-.27v2.65c-2.83.09-5.04.42-6.62.99-1.59.58-2.47,1.64-2.65,3.18-.18,1.55.35,3.86,1.59,6.96l24.12,61.35-2.78,3.31,18.29-49.29c2.39-6.63,3.62-11.84,3.71-15.64.09-3.8-.84-6.54-2.78-8.22-1.94-1.68-4.73-2.56-8.35-2.65V1.85c3,.09,5.83.18,8.48.27,2.65.09,5.34.13,8.08.13,1.94,0,3.78-.04,5.5-.13,1.72-.09,3.25-.18,4.57-.27Z"/>
      <path class="cls-1" d="M487.55,1.85c2.21.09,5.19.18,8.94.27,3.75.09,7.49.13,11.2.13,4.24,0,8.35-.04,12.32-.13,3.98-.09,6.8-.13,8.48-.13,8.22,0,15.04.91,20.47,2.72,5.43,1.81,9.5,4.44,12.19,7.88,2.69,3.45,4.04,7.6,4.04,12.46,0,3-.62,6.03-1.85,9.08-1.24,3.05-3.33,5.88-6.29,8.48-2.96,2.61-7,4.68-12.12,6.23-5.12,1.55-11.57,2.32-19.35,2.32h-12.72v-2.65h11.4c5.21,0,9.16-.99,11.86-2.98,2.69-1.99,4.55-4.64,5.57-7.95,1.02-3.31,1.52-7,1.52-11.06,0-6.98-1.24-12.39-3.71-16.23-2.47-3.84-6.71-5.76-12.72-5.76-3.44,0-5.68.75-6.69,2.25-1.02,1.5-1.52,4.55-1.52,9.14v65.72c0,3.18.24,5.57.73,7.16.48,1.59,1.44,2.65,2.85,3.18,1.41.53,3.53.88,6.36,1.06v2.65c-2.39-.18-5.39-.29-9.01-.33-3.62-.04-7.29-.07-11-.07-4.24,0-8.24.02-11.99.07-3.76.05-6.74.16-8.94.33v-2.65c2.83-.18,4.95-.53,6.36-1.06,1.41-.53,2.36-1.59,2.85-3.18.48-1.59.73-3.98.73-7.16V15.9c0-3.27-.24-5.68-.73-7.22-.49-1.55-1.46-2.6-2.92-3.18-1.46-.57-3.56-.91-6.29-.99V1.85ZM512.59,48.89c3.8.09,7.09.27,9.87.53,2.78.27,5.23.51,7.35.73,2.12.22,4.02.38,5.7.46,8.04.71,13.98,2.43,17.82,5.17,3.84,2.74,6.34,6.85,7.49,12.32l3.05,13.65c.79,3.53,1.63,6.01,2.52,7.42.88,1.41,2.16,2.12,3.84,2.12,1.15-.09,2.1-.37,2.85-.86.75-.48,1.57-1.21,2.45-2.19l1.85,1.59c-2.39,2.74-4.95,4.7-7.69,5.9-2.74,1.19-6.05,1.79-9.94,1.79-4.77,0-8.7-1.02-11.79-3.05-3.09-2.03-5.12-5.79-6.09-11.26l-2.39-13.25c-.62-3.71-1.37-6.96-2.25-9.74-.88-2.78-2.1-4.99-3.64-6.62-1.55-1.63-3.69-2.45-6.43-2.45h-14.31l-.27-2.25Z"/>
      <path class="cls-1" d="M627.34,0c9.36,0,17.56,1.9,24.58,5.7,7.02,3.8,12.48,9.25,16.36,16.36,3.88,7.11,5.83,15.75,5.83,25.9s-1.99,18.55-5.96,25.97-9.5,13.21-16.56,17.36c-7.07,4.15-15.19,6.23-24.38,6.23s-17.56-1.9-24.58-5.7c-7.02-3.8-12.48-9.27-16.36-16.43-3.89-7.16-5.83-15.77-5.83-25.84s2.01-18.55,6.03-25.97c4.02-7.42,9.54-13.21,16.56-17.36,7.02-4.15,15.13-6.23,24.32-6.23ZM626.81,2.39c-4.95,0-9.26,1.99-12.92,5.96-3.67,3.97-6.49,9.45-8.48,16.43-1.99,6.98-2.98,15.06-2.98,24.25s1.13,17.51,3.38,24.45c2.25,6.94,5.3,12.28,9.14,16.03,3.84,3.75,8.1,5.63,12.79,5.63,4.95,0,9.25-1.99,12.92-5.96,3.67-3.97,6.49-9.47,8.48-16.5,1.99-7.02,2.98-15.08,2.98-24.18s-1.12-17.62-3.38-24.51c-2.25-6.89-5.3-12.21-9.14-15.97-3.84-3.75-8.1-5.63-12.79-5.63Z"/>
      <path class="cls-1" d="M717.44.13c5.21,0,9.23.55,12.06,1.66,2.83,1.11,5.25,2.28,7.29,3.51,1.06.62,1.92,1.08,2.58,1.39.66.31,1.3.46,1.92.46.88,0,1.52-.48,1.92-1.46.4-.97.73-2.43.99-4.37h3.05c-.09,1.68-.2,3.69-.33,6.03-.13,2.34-.22,5.41-.27,9.21-.04,3.8-.07,8.79-.07,14.97h-3.05c-.35-4.59-1.42-9.05-3.18-13.38-1.77-4.33-4.26-7.88-7.49-10.67-3.23-2.78-7.18-4.17-11.86-4.17-4.24,0-7.73,1.19-10.47,3.58-2.74,2.39-4.11,5.7-4.11,9.94,0,3.53.88,6.56,2.65,9.08,1.77,2.52,4.35,4.97,7.75,7.35,3.4,2.39,7.53,5.26,12.39,8.61,4.24,2.74,8.04,5.48,11.4,8.21,3.35,2.74,6.05,5.83,8.08,9.28,2.03,3.45,3.05,7.55,3.05,12.32,0,5.83-1.52,10.65-4.57,14.44-3.05,3.8-7.05,6.65-11.99,8.55-4.95,1.9-10.38,2.85-16.3,2.85-5.48,0-9.85-.53-13.12-1.59-3.27-1.06-6.01-2.16-8.22-3.31-1.94-1.24-3.45-1.86-4.51-1.86-.88,0-1.52.49-1.92,1.46-.4.97-.73,2.43-.99,4.37h-3.05c.18-2.12.29-4.59.33-7.42.04-2.83.09-6.51.13-11.06.04-4.55.07-10.31.07-17.29h3.05c.35,5.83,1.35,11.29,2.98,16.36,1.63,5.08,4.15,9.17,7.55,12.26,3.4,3.09,7.93,4.64,13.58,4.64,3.09,0,5.85-.55,8.28-1.66,2.43-1.1,4.39-2.76,5.9-4.97,1.5-2.21,2.25-4.95,2.25-8.22,0-3.71-.86-6.93-2.58-9.67-1.72-2.74-4.06-5.3-7.02-7.69-2.96-2.39-6.38-4.81-10.27-7.29-4.15-2.74-8.04-5.48-11.66-8.22-3.62-2.74-6.52-5.87-8.68-9.41-2.17-3.53-3.25-7.73-3.25-12.59,0-5.57,1.39-10.14,4.18-13.71s6.45-6.23,11-7.95c4.55-1.72,9.38-2.58,14.51-2.58Z"/>
      <path class="cls-1" d="M162.25,119.57c2.3.09,5.3.18,9.01.27,3.71.09,7.42.13,11.13.13,4.33,0,8.46-.04,12.39-.13,3.93-.09,6.73-.13,8.41-.13,10.95,0,19.15,1.94,24.58,5.83,5.43,3.89,8.15,8.88,8.15,14.97,0,3.09-.93,6.23-2.78,9.41-1.86,3.18-4.73,6.01-8.61,8.48-3.89,2.47-8.92,4.29-15.11,5.43v.26c8.3.62,14.88,2.12,19.74,4.51,4.86,2.39,8.35,5.26,10.47,8.61,2.12,3.36,3.18,6.85,3.18,10.47,0,5.57-1.46,10.25-4.37,14.05-2.92,3.8-7.11,6.69-12.59,8.68-5.48,1.99-12.01,2.98-19.61,2.98-2.12,0-5.17-.07-9.14-.2-3.97-.13-8.79-.2-14.44-.2-3.89,0-7.69.02-11.39.06-3.71.05-6.71.16-9.01.33v-2.65c2.83-.18,4.95-.53,6.36-1.06,1.41-.53,2.36-1.59,2.85-3.18.48-1.59.73-3.98.73-7.16v-65.72c0-3.27-.24-5.68-.73-7.22-.49-1.55-1.46-2.6-2.92-3.18-1.46-.57-3.56-.91-6.29-.99v-2.65ZM201.47,122.22c-3.44,0-5.68.75-6.69,2.25-1.02,1.5-1.52,4.55-1.52,9.14v65.72c0,3.09.24,5.43.73,7.02.48,1.59,1.37,2.65,2.65,3.18,1.28.53,3.2.79,5.76.79,6.45,0,11.13-2.01,14.05-6.03,2.92-4.02,4.37-9.74,4.37-17.16,0-6.8-1.7-12.06-5.1-15.77-3.4-3.71-9.03-5.56-16.89-5.56h-11.26v-2.25h11.4c4.15,0,7.35-.99,9.61-2.98,2.25-1.99,3.8-4.64,4.64-7.95.84-3.31,1.26-6.87,1.26-10.67,0-6.54-1.02-11.46-3.05-14.77-2.03-3.31-5.35-4.97-9.94-4.97Z"/>
      <path class="cls-1" d="M293.69,119.31l32.2,82.95c1.24,3.18,2.63,5.37,4.17,6.56,1.54,1.19,2.94,1.83,4.17,1.92v2.65c-2.65-.18-5.76-.29-9.34-.33-3.58-.04-7.18-.06-10.8-.06-4.06,0-7.91.02-11.53.06-3.62.05-6.49.16-8.61.33v-2.65c4.51-.18,7.35-.95,8.55-2.32,1.19-1.37.9-4.31-.86-8.81l-22.53-61.61,2.39-3.44-20.14,52.47c-1.94,4.86-3.11,8.83-3.51,11.93-.4,3.09-.18,5.48.66,7.16.84,1.68,2.21,2.85,4.11,3.51,1.9.66,4.17,1.04,6.82,1.12v2.65c-2.92-.18-5.7-.29-8.35-.33-2.65-.04-5.35-.06-8.08-.06-1.94,0-3.78.02-5.5.06-1.72.05-3.25.16-4.57.33v-2.65c1.86-.35,3.75-1.54,5.7-3.58,1.94-2.03,3.84-5.48,5.7-10.34l30.21-77.51c1.41.09,2.94.13,4.57.13s3.16-.04,4.57-.13ZM302.97,175.22v2.65h-39.49l1.32-2.65h38.16Z"/>
      <path class="cls-1" d="M370.94,117.85c5.21,0,9.23.55,12.06,1.66,2.83,1.11,5.25,2.28,7.29,3.51,1.06.62,1.92,1.08,2.58,1.39.66.31,1.3.46,1.92.46.88,0,1.52-.48,1.92-1.46.4-.97.73-2.43.99-4.37h3.05c-.09,1.68-.2,3.69-.33,6.03-.13,2.34-.22,5.41-.27,9.21-.05,3.8-.07,8.79-.07,14.97h-3.05c-.35-4.59-1.41-9.05-3.18-13.38-1.77-4.33-4.26-7.88-7.49-10.67-3.23-2.78-7.18-4.17-11.86-4.17-4.24,0-7.73,1.19-10.47,3.58-2.74,2.39-4.11,5.7-4.11,9.94,0,3.53.88,6.56,2.65,9.08,1.77,2.52,4.35,4.97,7.75,7.35,3.4,2.39,7.53,5.26,12.39,8.61,4.24,2.74,8.04,5.48,11.39,8.21,3.36,2.74,6.05,5.83,8.08,9.28,2.03,3.45,3.05,7.55,3.05,12.32,0,5.83-1.52,10.64-4.57,14.44-3.05,3.8-7.05,6.65-11.99,8.55-4.95,1.9-10.38,2.85-16.3,2.85-5.48,0-9.85-.53-13.12-1.59-3.27-1.06-6.01-2.16-8.22-3.31-1.94-1.24-3.44-1.85-4.5-1.85-.88,0-1.52.49-1.92,1.46-.4.97-.73,2.43-.99,4.37h-3.05c.18-2.12.29-4.59.33-7.42.04-2.83.09-6.51.13-11.06.04-4.55.07-10.31.07-17.29h3.05c.35,5.83,1.35,11.29,2.98,16.36,1.63,5.08,4.15,9.17,7.55,12.26,3.4,3.09,7.93,4.64,13.58,4.64,3.09,0,5.85-.55,8.28-1.66,2.43-1.1,4.39-2.76,5.9-4.97,1.5-2.21,2.25-4.95,2.25-8.22,0-3.71-.86-6.93-2.58-9.67-1.72-2.74-4.06-5.3-7.02-7.69-2.96-2.39-6.38-4.81-10.27-7.29-4.15-2.74-8.04-5.48-11.66-8.22-3.62-2.74-6.51-5.87-8.68-9.41-2.17-3.53-3.25-7.73-3.25-12.59,0-5.57,1.39-10.14,4.17-13.71,2.78-3.58,6.45-6.23,11-7.95,4.55-1.72,9.38-2.58,14.51-2.58Z"/>
      <path class="cls-1" d="M495.76,119.57c-.35,4.5-.6,8.83-.73,12.99-.13,4.15-.2,7.33-.2,9.54,0,1.94.04,3.8.13,5.57.09,1.77.18,3.27.27,4.5h-3.05c-1.41-7.42-3.2-13.29-5.37-17.62-2.17-4.33-4.75-7.4-7.75-9.21-3-1.81-6.54-2.72-10.6-2.72h-3.05v75.66c0,3.53.37,6.19,1.13,7.95.75,1.77,2.14,2.94,4.17,3.51,2.03.58,4.99.91,8.88.99v2.65c-2.74-.09-6.38-.18-10.93-.27-4.55-.09-9.3-.13-14.24-.13s-9.45.04-13.78.13c-4.33.09-7.82.18-10.47.27v-2.65c3.98-.09,6.98-.42,9.01-.99,2.03-.57,3.4-1.74,4.11-3.51.71-1.77,1.06-4.42,1.06-7.95v-75.66h-2.92c-4.06,0-7.6.91-10.6,2.72-3,1.81-5.57,4.86-7.69,9.14-2.12,4.29-3.97,10.18-5.57,17.69h-3.05c.18-1.24.29-2.74.33-4.5.04-1.77.07-3.62.07-5.57,0-2.21-.07-5.39-.2-9.54-.13-4.15-.38-8.48-.73-12.99,4.06.09,8.5.18,13.32.27,4.81.09,9.65.13,14.51.13h26.3c4.81,0,9.65-.04,14.51-.13,4.86-.09,9.23-.18,13.12-.27Z"/>
      <path class="cls-1" d="M540.28,119.31l32.2,82.95c1.24,3.18,2.63,5.37,4.17,6.56,1.54,1.19,2.94,1.83,4.17,1.92v2.65c-2.65-.18-5.76-.29-9.34-.33-3.58-.04-7.18-.06-10.8-.06-4.06,0-7.91.02-11.53.06-3.62.05-6.49.16-8.61.33v-2.65c4.51-.18,7.35-.95,8.55-2.32,1.19-1.37.9-4.31-.86-8.81l-22.52-61.61,2.39-3.44-20.14,52.47c-1.94,4.86-3.11,8.83-3.51,11.93-.4,3.09-.18,5.48.66,7.16.84,1.68,2.21,2.85,4.11,3.51,1.9.66,4.17,1.04,6.82,1.12v2.65c-2.92-.18-5.7-.29-8.35-.33-2.65-.04-5.35-.06-8.08-.06-1.94,0-3.78.02-5.5.06-1.72.05-3.25.16-4.57.33v-2.65c1.86-.35,3.75-1.54,5.7-3.58,1.94-2.03,3.84-5.48,5.7-10.34l30.21-77.51c1.41.09,2.94.13,4.57.13s3.16-.04,4.57-.13ZM549.56,175.22v2.65h-39.49l1.32-2.65h38.16Z"/>
    </g>
  </g>
</svg>
